<svg xmlns="http://www.w3.org/2000/svg" xmlns:xlink="http://www.w3.org/1999/xlink" version="1.1" x="0px" y="0px" viewBox="0 0 60 75" enable-background="new 0 0 60 60" xml:space="preserve"><g><g><rect x="17" y="23" width="18" height="2"/><rect x="14" y="29" width="21" height="2"/><rect x="14" y="35" width="17" height="2"/><rect x="14" y="41" width="13" height="2"/><rect x="23" y="17" width="12" height="2"/><path d="M42,40.6l-3.7,3.7c-0.4,0.4-0.4,1,0,1.4s1,0.4,1.4,0l1.3-1.3V55h2V44.4l1.3,1.3c0.2,0.2,0.5,0.3,0.7,0.3s0.5-0.1,0.7-0.3    c0.4-0.4,0.4-1,0-1.4L42,40.6z"/><path d="M8,22.5l11-8V2h22v31h2V2c0-1.1-0.9-2-2-2H17.4L6,21.8V53c0,1.1,0.9,2,2,2h20v-2H8V22.5z M9.9,18.7L17,5.1v8.4L9.9,18.7z"/><path d="M42,36c-6.6,0-12,5.4-12,12s5.4,12,12,12s12-5.4,12-12S48.6,36,42,36z M42,58c-5.5,0-10-4.5-10-10s4.5-10,10-10    s10,4.5,10,10S47.5,58,42,58z"/></g></g><text x="0" y="75" fill="#000000" font-size="5px" font-weight="bold" font-family="'Helvetica Neue', Helvetica, Arial-Unicode, Arial, Sans-serif">Created by Clea Doltz</text><text x="0" y="80" fill="#000000" font-size="5px" font-weight="bold" font-family="'Helvetica Neue', Helvetica, Arial-Unicode, Arial, Sans-serif">from the Noun Project</text></svg>